<svg width="1200" height="1200" xmlns="http://www.w3.org/2000/svg"><g fill="none" fill-rule="evenodd"><path d="m759.705 83.217-24.679 31.68-98.653 145.727-69.984 101.375C451.222 539.405 393.64 675.98 393.64 771.723 393.639 961.802 535.54 1173 759.705 1173s374.48-168.959 374.295-384.38c.185-92.928-53.623-187.967-100.774-236.543-47.15-48.575-94.48-88.703-160.29-137.279-10.284 69.696-24.684 173.183-14.399 213.31 7.974 31.109 29.267 50.964 47.313 71.808 16.457 19.008 26.742 42.24 26.742 76.031 0 135.167-88.568 198.527-172.887 198.527s-168.637-76.032-168.637-202.75c0-76.167 45.244-147.84 115.167-268.222 69.922-120.383 80.312-137.28 109.104-187.967 21.83-38.433 3.286-115.872-55.634-232.318z" fill="#1350DE"/><path d="M341.566 545.881c17.117-11.762 49.924-63.959 98.422-156.588l-301.683-2.206C84.102 394.44 57 424.58 57 477.512c0 52.93 27.102 83.072 81.305 90.424 57.055 1.47 97.708 2.205 121.957 2.205 36.373 0 55.629-6.616 81.304-24.26z" fill="#45ACFE"/><path d="M363.488 291.456c20.472 1.978 77.779-17.176 171.92-57.46L302.253 37.027c-46.612-29.394-86.045-23.613-118.299 17.344-32.253 40.956-29.554 81.82 8.099 122.59 43.453 38.068 74.605 64.948 93.453 80.643 28.273 23.542 47.273 30.886 77.982 33.852z" fill="#1350DE"/></g></svg>