<svg width="1006" height="676" viewBox="0 0 1006 676" fill="none" xmlns="http://www.w3.org/2000/svg">
<path fill-rule="evenodd" clip-rule="evenodd" d="M842.805 632.737C792.669 661.029 734.869 675.209 669.405 675.276H669.445L330.087 674.902V575.885L669.405 575.613C713.793 575.542 752.95 565.413 786.875 545.228C820.919 524.971 847.669 497.017 867.123 461.365C886.577 425.713 896.304 384.794 896.304 338.608C896.304 292.423 886.577 251.504 867.123 215.852C847.669 179.39 820.919 151.03 786.875 130.773C752.95 110.588 713.793 100.377 669.405 100.306H328.005L326.617 0.789582L669.405 0.724609C734.06 0.795038 791.454 15.3798 841.589 44.479C892.656 72.8386 932.375 112.542 960.746 163.589C989.927 213.826 1004.92 272.166 1005.73 338.608C1005.73 404.24 991.143 462.58 961.962 513.627C932.781 563.864 893.062 603.568 842.805 632.737Z" fill="#45FFCA"/>
<path d="M335.808 675.096C271.004 675.096 213.085 660.92 162.051 632.568C111.828 603.406 72.1351 563.713 42.9731 513.49C14.6212 462.456 0.445312 404.132 0.445312 338.518C0.445312 272.093 14.6212 213.769 42.9731 163.546C72.1351 112.512 111.828 72.8195 162.051 44.4675C213.085 15.3056 271.004 0.724609 335.808 0.724609C400.613 0.724609 458.127 15.3056 508.35 44.4675C559.384 72.8195 599.076 112.512 627.428 163.546C656.59 213.769 671.577 272.093 672.387 338.518C672.387 404.132 657.805 462.456 628.643 513.49C599.481 563.713 559.789 603.406 509.565 632.568C459.342 660.92 401.423 675.096 335.808 675.096ZM335.808 575.459C380.361 575.459 419.649 565.333 453.671 545.082C487.694 524.831 514.426 496.884 533.867 461.241C553.308 425.599 563.029 384.691 563.029 338.518C563.029 292.345 553.308 251.437 533.867 215.794C514.426 179.342 487.694 150.99 453.671 130.738C419.649 110.487 380.361 100.361 335.808 100.361C292.065 100.361 252.778 110.487 217.945 130.738C183.923 150.99 157.191 179.342 137.75 215.794C118.308 251.437 108.588 292.345 108.588 338.518C108.588 384.691 118.308 425.599 137.75 461.241C157.191 496.884 183.923 524.831 217.945 545.082C252.778 565.333 292.065 575.459 335.808 575.459Z" fill="#060640"/>
</svg>
