<svg version="1.1" id="oeLogo-svg" xmlns="http://www.w3.org/2000/svg" xmlns:xlink="http://www.w3.org/1999/xlink" x="0px" y="0px"
     width="16px" height="16px" viewBox="0 0 16 16" enable-background="new 0 0 16 16" xml:space="preserve">
<g id="oeLogo-g">
    <g>
        <path id="oeLogo-bigCircle" d="M15.927,9.872c0-0.08-0.007-0.159-0.016-0.236c0-0.012-0.003-0.024-0.005-0.037c-0.003-0.018-0.005-0.035-0.007-0.053
            c-0.005-0.023-0.01-0.048-0.014-0.071c0-0.007-0.003-0.014-0.003-0.021c-0.029-0.145-0.08-0.298-0.152-0.453
            c-0.019-0.037-0.037-0.072-0.058-0.107c-0.344-0.621-1.007-1.041-1.765-1.041c-0.298,0-0.58,0.065-0.834,0.18
            c-0.012,0.005-0.025,0.011-0.037,0.017c-0.005,0.002-0.01,0.005-0.016,0.007c-0.027,0.014-0.058,0.028-0.085,0.044
            c-0.019,0.01-0.034,0.02-0.053,0.03c-0.014,0.008-0.027,0.016-0.039,0.025c-0.021,0.012-0.039,0.023-0.06,0.036
            c-0.007,0.006-0.016,0.012-0.022,0.018c-0.071,0.049-0.138,0.1-0.195,0.154c-0.007,0.005-0.014,0.01-0.021,0.017
            c-0.016,0.015-0.029,0.029-0.046,0.044c-0.009,0.009-0.021,0.02-0.029,0.03c-0.015,0.013-0.025,0.025-0.037,0.037
            c-0.012,0.013-0.025,0.026-0.036,0.04c-0.009,0.011-0.019,0.021-0.027,0.033c-0.012,0.014-0.025,0.029-0.037,0.044
            c-0.01,0.01-0.017,0.021-0.025,0.031c-0.012,0.014-0.021,0.028-0.031,0.042c-0.01,0.014-0.019,0.028-0.03,0.042
            c-0.007,0.01-0.012,0.019-0.019,0.028c-0.101,0.151-0.163,0.283-0.194,0.364c0.002-0.009,0.004-0.018,0.004-0.026
            c-0.522,1.623-2.043,2.799-3.841,2.799c-2.229,0-4.036-1.808-4.036-4.037c0-1.773,1.145-3.279,2.735-3.82
            c-0.004,0-0.009,0.001-0.013,0.003C7.651,3.75,8.198,3.01,8.198,2.143c0-1.114-0.903-2.018-2.018-2.018
            c-0.236,0-0.463,0.041-0.673,0.116l0,0C2.372,1.349,0.125,4.338,0.125,7.853c0,4.458,3.614,8.073,8.072,8.073
            c3.548,0,6.561-2.288,7.643-5.469c0.019-0.06,0.041-0.146,0.057-0.255C15.915,10.095,15.927,9.983,15.927,9.872z"/>
    </g>
    <circle id="oeLogo-centerCircle" cx="8.18" cy="7.854" r="2.019"/>
    <g>
        <path id="oeLogo-smallCircle" d="M12.479,1.551c-1.114,0-2.019,0.903-2.019,2.018c0,1.114,0.904,2.018,2.019,2.018c1.113,0,2.019-0.904,2.019-2.018
            C14.497,2.454,13.592,1.551,12.479,1.551z M12.479,4.522c-0.527,0-0.953-0.427-0.953-0.953s0.426-0.953,0.953-0.953
            s0.953,0.426,0.953,0.953S13.006,4.522,12.479,4.522z"/>
    </g>
</g>
</svg>
