<svg width="108" height="108" xmlns="http://www.w3.org/2000/svg"><path d="M29.19 42.544h15.03a4.162 4.162 0 0 1 4.162 4.162v42.312c0 10.599-8.592 19.19-19.191 19.19-10.599 0-19.191-8.591-19.191-19.19V61.735c0-10.6 8.592-19.191 19.19-19.191zm-4.153 24.97c3.696 0 6.692-2.984 6.692-6.666 0-3.682-2.996-6.667-6.692-6.667-3.697 0-6.693 2.985-6.693 6.667s2.996 6.667 6.693 6.667zM76.59 0h17.572a4.162 4.162 0 0 1 4.162 4.162v82.313c0 12.003-9.73 21.734-21.734 21.734H59.018a4.162 4.162 0 0 1-4.162-4.162V21.734C54.856 9.731 64.586 0 76.59 0z" fill="#7C2CFB"/></svg>