<?xml version="1.0" encoding="UTF-8"?>
<svg width="1200px" height="1200px" viewBox="0 0 1200 1200" version="1.1" xmlns="http://www.w3.org/2000/svg" xmlns:xlink="http://www.w3.org/1999/xlink">
    <title>original copy</title>
    <g id="original-copy" stroke="none" stroke-width="1" fill="none" fill-rule="evenodd">
        <g id="Group-2-Copy-2" transform="translate(113.000000, 115.337454)">
            <path d="M576.126738,79.6625464 L555.893474,105.621849 L475.010892,225.034639 L417.632842,308.104407 C323.210947,453.4765 276,565.389937 276,643.844717 C276,799.600531 392.341263,972.662546 576.126738,972.662546 C759.912212,972.662546 883.151873,834.212934 883,657.689678 C883.151873,581.542391 839.035978,503.664484 800.378738,463.860221 C761.721498,424.055957 722.917553,391.174174 668.962184,351.369911 C660.52952,408.480376 648.723789,493.280763 657.156454,526.162546 C663.693745,551.653636 681.151245,567.923622 695.946712,585.003632 C709.438976,600.579213 717.871641,619.616035 717.871641,647.305957 C717.871641,758.065647 645.257053,809.984252 576.126738,809.984252 C506.996422,809.984252 437.866106,747.681926 437.866106,643.844717 C437.866106,581.43209 474.960421,522.701306 532.288001,424.055957 C589.61558,325.410608 598.133787,311.565647 621.739261,270.030763 C639.637855,238.537389 624.433681,175.081316 576.126738,79.6625464 Z" id="Path-2" fill="#FFFFFF"></path>
            <path d="M233.307263,458.783028 C247.340782,449.144474 274.238361,406.37339 314,330.469775 L66.6592179,328.662546 C22.2197393,334.686643 0,359.385438 0,402.758932 C0,446.132426 22.2197393,470.831221 66.6592179,476.855318 C113.437616,478.060137 146.767225,478.662546 166.648045,478.662546 C196.469274,478.662546 212.256983,473.24086 233.307263,458.783028 Z" id="Path-3" fill="#D0D0D0"></path>
            <path d="M303.90359,213.425621 C317.967441,204.121825 344.603988,162.35654 383.813231,88.1297672 L133.682579,82.9957814 C88.8252451,88.327003 66.6814549,112.354307 67.2512086,155.077692 C67.8209623,197.801078 90.6136387,222.430964 135.629238,228.967349 C182.946608,230.788407 216.656871,231.833724 236.760027,232.1033 C266.914761,232.507664 282.807813,227.381316 303.90359,213.425621 Z" id="Path-3-Copy-2" fill="#FFFFFF" transform="translate(225.526860, 157.560548) rotate(39.000000) translate(-225.526860, -157.560548) "></path>
        </g>
    </g>
</svg>