<?xml version="1.0" encoding="UTF-8"?>
<svg width="1200px" height="1200px" viewBox="0 0 1200 1200" version="1.1" xmlns="http://www.w3.org/2000/svg" xmlns:xlink="http://www.w3.org/1999/xlink">
    <title>original</title>
    <g id="original" stroke="none" stroke-width="1" fill="none" fill-rule="evenodd">
        <g id="Group-2-Copy-2" transform="translate(113.000000, 115.000000)">
            <path d="M576.126738,80 L555.893474,105.959302 L475.010892,225.372093 L417.632842,308.44186 C323.210947,453.813953 276,565.72739 276,644.182171 C276,799.937984 392.341263,973 576.126738,973 C759.912212,973 883.151873,834.550388 883,658.027132 C883.151873,581.879845 839.035978,504.001938 800.378738,464.197674 C761.721498,424.393411 722.917553,391.511628 668.962184,351.707364 C660.52952,408.817829 648.723789,493.618217 657.156454,526.5 C663.693745,551.991089 681.151245,568.261075 695.946712,585.341085 C709.438976,600.916667 717.871641,619.953488 717.871641,647.643411 C717.871641,758.403101 645.257053,810.321705 576.126738,810.321705 C506.996422,810.321705 437.866106,748.01938 437.866106,644.182171 C437.866106,581.769543 474.960421,523.03876 532.288001,424.393411 C589.61558,325.748062 598.133787,311.903101 621.739261,270.368217 C639.637855,238.874842 624.433681,175.41877 576.126738,80 Z" id="Path-2" fill="#1350DE"></path>
            <path d="M233.307263,459.120482 C247.340782,449.481928 274.238361,406.710843 314,330.807229 L66.6592179,329 C22.2197393,335.024096 0,359.722892 0,403.096386 C0,446.46988 22.2197393,471.168675 66.6592179,477.192771 C113.437616,478.39759 146.767225,479 166.648045,479 C196.469274,479 212.256983,473.578313 233.307263,459.120482 Z" id="Path-3" fill="#45ACFE"></path>
            <path d="M303.90359,213.763075 C317.967441,204.459278 344.603988,162.693993 383.813231,88.4672207 L133.682579,83.333235 C88.8252451,88.6644565 66.6814549,112.69176 67.2512086,155.415146 C67.8209623,198.138532 90.6136387,222.768417 135.629238,229.304803 C182.946608,231.12586 216.656871,232.171177 236.760027,232.440753 C266.914761,232.845118 282.807813,227.71877 303.90359,213.763075 Z" id="Path-3-Copy-2" fill="#0D25BF" transform="translate(225.526860, 157.898001) rotate(39.000000) translate(-225.526860, -157.898001) "></path>
        </g>
    </g>
</svg>