<svg width="725" height="486" viewBox="0 0 725 486" fill="none" xmlns="http://www.w3.org/2000/svg">
<path fill-rule="evenodd" clip-rule="evenodd" d="M606.902 455.352C570.78 475.735 529.136 485.951 481.971 486H482L237.5 485.73V414.391L481.971 414.194C513.952 414.143 542.163 406.846 566.606 392.303C591.134 377.708 610.406 357.568 624.423 331.881C638.439 306.195 645.447 276.714 645.447 243.438C645.447 210.162 638.439 180.681 624.423 154.995C610.406 128.724 591.134 108.292 566.606 93.6972C542.163 79.154 513.952 71.7976 481.971 71.7464H236L235 0.0468116L481.971 0C528.553 0.0507422 569.905 10.5588 606.026 31.5241C642.819 51.9566 671.436 80.562 691.876 117.34C712.9 153.535 723.705 195.567 724.289 243.438C724.289 290.724 713.776 332.757 692.752 369.535C671.728 405.73 643.111 434.335 606.902 455.352Z" fill="#91A39E"/>
<path d="M241.622 485.87C194.932 485.87 153.202 475.656 116.434 455.229C80.2488 434.219 51.651 405.621 30.6404 369.436C10.2134 332.668 0 290.646 0 243.373C0 195.515 10.2134 153.494 30.6404 117.309C51.651 80.5406 80.2488 51.9428 116.434 31.5158C153.202 10.5053 194.932 0 241.622 0C288.312 0 329.749 10.5053 365.934 31.5158C402.703 51.9428 431.301 80.5406 451.728 117.309C472.738 153.494 483.535 195.515 484.119 243.373C484.119 290.646 473.614 332.668 452.603 369.436C431.592 405.621 402.995 434.219 366.81 455.229C330.625 475.656 288.896 485.87 241.622 485.87ZM241.622 414.084C273.721 414.084 302.027 406.788 326.54 392.198C351.052 377.607 370.312 357.472 384.319 331.792C398.326 306.113 405.329 276.639 405.329 243.373C405.329 210.106 398.326 180.633 384.319 154.953C370.312 128.69 351.052 108.263 326.54 93.6722C302.027 79.0815 273.721 71.7862 241.622 71.7862C210.106 71.7862 181.8 79.0815 156.704 93.6722C132.192 108.263 112.932 128.69 98.9249 154.953C84.9178 180.633 77.9142 210.106 77.9142 243.373C77.9142 276.639 84.9178 306.113 98.9249 331.792C112.932 357.472 132.192 377.607 156.704 392.198C181.8 406.788 210.106 414.084 241.622 414.084Z" fill="white"/>
</svg>
